<svg version="1.1" id="Layer_1" xmlns="http://www.w3.org/2000/svg" xmlns:xlink="http://www.w3.org/1999/xlink" x="0px" y="0px"
	 width="100%" viewBox="0 0 800 592" enable-background="new 0 0 800 592" xml:space="preserve">
<path fill="#000000" opacity="1.000000" stroke="none" 
	d="
M416.212616,287.781311 
	C400.108185,278.746979 382.765594,273.113953 366.580902,262.901886 
	C366.434784,270.996338 365.179871,277.609894 370.853363,283.931488 
	C381.061035,295.305237 387.173828,308.899658 389.082275,324.249542 
	C390.033875,331.903625 386.767181,337.459991 380.528168,338.207458 
	C375.948517,338.756134 371.765717,336.225403 369.129700,330.909363 
	C364.921570,322.423035 363.118378,313.286255 362.747070,303.907562 
	C362.470428,296.920319 362.653107,289.912048 362.743500,282.914581 
	C362.777405,280.289948 362.120575,278.082672 360.407043,276.029938 
	C351.887543,265.823761 341.744324,257.496918 330.658691,250.286880 
	C325.013062,246.614990 322.434113,248.064209 322.343811,254.815430 
	C322.209045,264.885498 324.839478,274.565704 326.835724,284.312500 
	C330.576569,302.577393 333.889893,320.823914 333.445343,339.635803 
	C332.996674,358.621521 333.329803,377.625732 333.320679,396.621826 
	C333.319763,398.579193 333.320587,400.536560 333.320587,401.702423 
	C335.201935,403.866425 337.837189,401.624634 338.620239,404.237915 
	C333.866791,406.522064 331.222748,405.528412 330.217773,400.884857 
	C329.765167,398.793518 329.692841,396.586761 329.703003,394.433594 
	C329.782288,377.604431 329.564178,360.763367 330.134033,343.949585 
	C330.897247,321.430206 326.924561,299.586914 322.242096,277.747131 
	C320.407867,269.192230 318.018829,260.567535 319.497589,251.643539 
	C320.626617,244.830139 324.479675,242.939285 330.526703,246.355331 
	C339.875061,251.636353 347.934357,258.608765 355.592773,266.076050 
	C357.595825,268.029114 359.238068,270.406921 362.569946,272.166016 
	C362.697845,266.151672 364.104462,261.169922 359.461884,255.778000 
	C348.777710,243.369385 344.743622,228.401550 346.283966,212.080215 
	C346.561188,209.143036 346.340393,206.086594 347.708130,203.257874 
	C349.530090,199.489716 351.470856,198.989410 354.584412,201.812302 
	C357.001007,204.003281 358.268402,206.922745 359.362335,209.908722 
	C364.341736,223.499863 366.657715,237.571304 366.216614,252.003464 
	C366.075348,256.625427 367.763550,259.408722 371.447754,261.833771 
	C382.368439,269.022125 394.406586,273.946045 406.159668,279.463989 
	C411.132629,281.798767 416.026886,284.306213 420.909271,286.827423 
	C426.512482,289.720886 429.301727,294.678131 429.044189,300.694305 
	C428.782471,306.809204 424.158203,309.801208 418.787323,311.597198 
	C414.683411,312.969543 410.548553,314.249207 406.440399,315.609192 
	C402.328400,316.970459 398.234253,318.316956 394.940002,321.395355 
	C393.696594,322.557281 392.162109,324.065735 390.010345,322.148926 
	C390.321594,318.800690 393.219543,317.677002 395.603210,316.617981 
	C399.846039,314.732910 404.338196,313.408966 408.726196,311.850739 
	C411.545776,310.849487 414.394989,309.923553 417.178558,308.830536 
	C421.330261,307.200287 425.310730,305.121246 425.663544,300.034180 
	C426.003387,295.134033 422.670807,292.154236 419.090973,289.520386 
	C418.289490,288.930725 417.386414,288.479126 416.212616,287.781311 
M375.633911,295.864410 
	C372.988678,291.893036 370.446899,287.841461 366.234253,283.585480 
	C366.056519,293.780640 365.573212,302.996246 366.860931,312.183716 
	C367.764160,318.627686 369.379822,324.898956 372.750854,330.577667 
	C374.734283,333.918823 377.510284,335.775818 381.482574,334.629547 
	C385.278656,333.534149 385.676605,330.350128 385.686127,327.031464 
	C385.718323,315.816132 381.332275,306.007355 375.633911,295.864410 
M354.943237,207.748215 
	C353.920563,206.373810 353.601837,204.245316 351.278595,204.220306 
	C345.118073,219.381332 353.031097,246.646179 362.682281,252.878708 
	C363.489105,237.271530 360.867920,222.595093 354.943237,207.748215 
z"/>
</svg>